Coordinates
version=1
nRows=19
nColumns=24
inDegrees=yes

Units are S.I. units (second, meters, Newtons, ...)
Angles are in degrees.

endheader
time	pelvis_tilt	pelvis_list	pelvis_rotation	pelvis_tx	pelvis_ty	pelvis_tz	hip_flexion_r	hip_adduction_r	hip_rotation_r	knee_angle_r	ankle_angle_r	subtalar_angle_r	mtp_angle_r	hip_flexion_l	hip_adduction_l	hip_rotation_l	knee_angle_l	ankle_angle_l	subtalar_angle_l	mtp_angle_l	lumbar_extension	lumbar_bending	lumbar_rotation
      1.75700000	     -1.76892864	      8.63724369	     -4.24128418	      1.39046959	      1.00775146	      0.28780918	     20.08244550	    -10.94293995	      2.92126325	    -70.47694327	     -3.17968060	     -3.87352916	     11.77105752	      7.06123072	     13.48638343	      4.17606876	     -7.44939222	      1.92478235	    -14.89192878	     -0.98097433	     -8.95325777	     -5.21049557	     -0.92102738
      1.76116667	     -1.74843544	      8.45333776	     -4.03393992	      1.39490640	      1.00841685	      0.28730513	     20.53482532	    -10.69947925	      2.81500987	    -69.99600694	     -2.34244835	     -3.65910768	     11.70335982	      6.49578939	     13.34340585	      4.49507027	     -7.01710683	      1.91337789	    -14.88959246	     -0.96881702	     -9.02691225	     -4.95118636	     -1.25357124
      1.76533333	     -1.71072349	      8.28033874	     -3.83209479	      1.39933244	      1.00905378	      0.28680851	     20.96559621	    -10.47499472	      2.70570939	    -69.47510289	     -1.52962216	     -3.47431271	     11.63204761	      5.93038150	     13.20952596	      4.78833271	     -6.61300693	      1.92163992	    -14.87452250	     -0.95661524	     -9.11598764	     -4.70428393	     -1.53405940
      1.76950000	     -1.67396059	      8.10236027	     -3.62822582	      1.40370017	      1.00965357	      0.28633322	     21.38554971	    -10.24093879	      2.59999041	    -68.90608122	     -0.76139866	     -3.34777898	     11.55581240	      5.37099722	     13.06357247	      5.07518985	     -6.21025867	      1.92996327	    -14.84992213	     -0.94679476	     -9.21598991	     -4.45464801	     -1.82059184
      1.77366667	     -1.64924828	      7.95224759	     -3.42029821	      1.40812482	      1.01016540	      0.28585492	     21.81170501	    -10.04725823	      2.48357949	    -68.30894950	     -0.03298763	     -3.29062247	     11.39655022	      4.82169855	     12.94400064	      5.38141512	     -5.79965530	      1.87470726	    -14.88622799	     -0.93134524	     -9.28624545	     -4.23828073	     -2.16563785
      1.77783333	     -1.63450095	      7.79943086	     -3.23218606	      1.41250503	      1.01061975	      0.28541351	     22.24709893	     -9.84224354	      2.39005577	    -67.66850762	      0.63941144	     -3.24396650	     11.23370484	      4.29784856	     12.81381964	      5.65647122	     -5.40836691	      1.87651713	    -14.87810913	     -0.91420508	     -9.34908233	     -4.01952128	     -2.42413649
      1.78200000	     -1.65172589	      7.62430988	     -3.02590789	      1.41687166	      1.01100934	      0.28498486	     22.69348037	     -9.61300010	      2.27748832	    -66.97136336	      1.27600908	     -3.26110635	     11.18001523	      3.83372165	     12.65201208	      5.87992356	     -5.07316628	      1.92882055	    -14.79527512	     -0.90634825	     -9.38465589	     -3.80925800	     -2.55006146
      1.78616667	     -1.58942073	      7.49085836	     -2.81773157	      1.42125273	      1.01143715	      0.28452441	     23.04960906	     -9.45622829	      2.14420270	    -66.24950584	      1.86320127	     -3.30718660	     11.00787742	      3.25871012	     12.54053223	      6.18800966	     -4.67941916	      1.90672980	    -14.82035040	     -0.88886006	     -9.49555181	     -3.58882663	     -2.95537104
      1.79033333	     -1.57926993	      7.34104146	     -2.63655758	      1.42564260	      1.01175051	      0.28412007	     23.45187182	     -9.26050852	      2.04878693	    -65.48239027	      2.39663261	     -3.38680758	     10.85778915	      2.75414362	     12.40131277	      6.45330467	     -4.31105238	      1.93917161	    -14.82488654	     -0.87031038	     -9.54852371	     -3.37045649	     -3.17123668
      1.79450000	     -1.56621489	      7.19944702	     -2.43319973	      1.43001623	      1.01203639	      0.28371594	     23.83495277	     -9.08162762	      1.93362756	    -64.67650085	      2.91214385	     -3.53784777	     10.72258847	      2.26093980	     12.26684347	      6.70611881	     -3.96691727	      1.95824450	    -14.80249945	     -0.85077900	     -9.60980679	     -3.17560325	     -3.38644838
      1.79866667	     -1.57299514	      7.09398340	     -2.22056451	      1.43436188	      1.01221957	      0.28330303	     24.24317546	     -8.95084310	      1.81440321	    -63.85523087	      3.38949841	     -3.75209409	     10.47702872	      1.79417791	     12.16844385	      6.99885053	     -3.62984451	      1.90966842	    -14.85366962	     -0.81796688	     -9.65101327	     -3.01246433	     -3.71545163
      1.80283333	     -1.58337009	      6.96002445	     -2.03275801	      1.43873874	      1.01238440	      0.28294321	     24.62768731	     -8.77861189	      1.71421162	    -62.97276473	      3.83781340	     -3.95601671	     10.38862754	      1.35109351	     12.03316536	      7.20512039	     -3.32964861	      1.96394827	    -14.79311877	     -0.80373305	     -9.68462360	     -2.84539218	     -3.80366513
      1.80700000	     -1.55906529	      6.88114841	     -1.83170223	      1.44312580	      1.01252022	      0.28255400	     24.97770292	     -8.68520622	      1.60182060	    -62.08134947	      4.23084140	     -4.23997629	     10.01312487	      0.82922878	     11.95595252	      7.53101513	     -2.93403536	      1.88178396	    -14.94106896	     -0.74952625	     -9.72696985	     -2.69575490	     -4.19325179
      1.81116667	     -1.54503676	      6.75094658	     -1.65089810	      1.44749820	      1.01264377	      0.28223265	     25.31073496	     -8.51578366	      1.51236769	    -61.11959301	      4.53194281	     -4.56969275	      9.83726736	      0.35594318	     11.81647722	      7.77013376	     -2.62422643	      1.94669203	    -14.89007252	     -0.71934366	     -9.80434624	     -2.52054129	     -4.34078868
      1.81533333	     -1.58801794	      6.68555441	     -1.43491009	      1.45185008	      1.01259980	      0.28185234	     25.71132429	     -8.43911717	      1.40780571	    -60.16957086	      4.93468909	     -4.82113302	      9.02263721	     -0.06289796	     11.74646756	      8.13526822	     -2.29401047	      1.86709296	    -15.09958558	     -0.58660983	     -9.79459088	     -2.39480352	     -4.68386743
      1.81950000	     -1.58615643	      6.59205614	     -1.25812913	      1.45625579	      1.01261447	      0.28156581	     26.03615438	     -8.31374339	      1.32676460	    -59.14790893	      5.17050132	     -5.25947268	      8.91845273	     -0.50279332	     11.63834020	      8.30358494	     -2.01931693	      1.92894325	    -14.97828557	     -0.56723822	     -9.84191399	     -2.28323069	     -4.75315334
      1.82366667	     -1.58265393	      6.51768292	     -1.07291133	      1.46062317	      1.01259055	      0.28127587	     26.34903266	     -8.21621315	      1.24508322	    -58.10228601	      5.38956183	     -5.68882078	      8.80114077	     -0.94043072	     11.54852212	      8.53145518	     -1.74536661	      1.97803717	    -14.93629642	     -0.54475012	     -9.88956660	     -2.17053970	     -4.94321236
      1.82783333	     -1.57406423	      6.45323257	     -0.89343410	      1.46500906	      1.01253332	      0.28100426	     26.64338095	     -8.13120441	      1.17019917	    -57.02614257	      5.58924724	     -6.13135882	      8.68067525	     -1.39489139	     11.46426574	      8.76213264	     -1.44735913	      2.00859781	    -14.92219253	     -0.52388605	     -9.94151420	     -2.06822925	     -5.14289482
      1.83200000	     -1.58451458	      6.42377358	     -0.72387982	      1.46939325	      1.01236755	      0.28071228	     26.96456416	     -8.09011692	      1.11035234	    -55.94926466	      5.75362144	     -6.50132850	      7.86315065	     -1.86021556	     11.41694763	      9.15869876	     -1.08100915	      1.93135577	    -15.21050717	     -0.39417984	     -9.95966720	     -1.97375730	     -5.51724632
